# xmcd
#
# Track frame offsets:
#	182
#	14857
#	32427
#	46812
#	63607
#	76682
#	88582
#	102932
#	117492
#	132920
#	146432
#	161537
#	174607
#	191087
#
# Disc length: 2755 seconds
#
# Revision: 0
# Processed by: cddbd v1.5.1PL0 Copyright (c) Steve Scherf et al.
# Submitted via: audiograbber 1.83.01
#
DISCID=ba0ac10e
DTITLE=Truck Stop - Lousiana Ladies
DYEAR=1997
DGENRE=Country
TTITLE0=Lousiana Ladies
TTITLE1=Träume von den Cowboys
TTITLE2=Sie will den Himmel auf Erden
TTITLE3=Es ist nicht wahr
TTITLE4=Trucker, Cowboy, Mann
TTITLE5=Schöne Grüße
TTITLE6=Highways
TTITLE7=Der Traum vom großen Abenteuer
TTITLE8=Nastarowje
TTITLE9=Oh, Mann du weißt doch...
TTITLE10=Trucker bleibt Trucker
TTITLE11=Ich würd so gern mal wieder sündigen
TTITLE12=Silverado
TTITLE13=Wenn ein Stern vom Himmel fällt
EXTD=
EXTT0=
EXTT1=
EXTT2=
EXTT3=
EXTT4=
EXTT5=
EXTT6=
EXTT7=
EXTT8=
EXTT9=
EXTT10=
EXTT11=
EXTT12=
EXTT13=
PLAYORDER=
